<?xml version="1.0" encoding="UTF-8"?><svg id="Calque_2" xmlns="http://www.w3.org/2000/svg" viewBox="0 0 987.38 984.75"><defs><style>.cls-1{fill:#d22913;}.cls-2{fill:#507f24;}</style></defs><g id="Calque_2-2"><g><path class="cls-1" d="M485.89,984.75c-116.99,0-429.9-81.14-480.76-435.06C-25.86,334.02,86.54,188.37,264.02,135.8c16.49,23.2,36.65,34.53,46.29,39.95,.81,.45,1.55,.86,2.19,1.24,6.84,3.99,16.71,7.23,29.91,10.34-12.63,8.88-27.19,25.61-48.09,50.35-9.21,10.92-21.85,25.88-26.04,29.05-5.48,4.11-25.52,16.61-41.66,20.57l-67.59,16.52,62.55,30.52c.47,.24,48.36,23.27,105.65,23.27,38.3,0,71.45-10.22,98.52-30.4,6.97-5.19,13.36-10.53,19.21-15.9,.53,17.3,2.83,32.7,6.86,46.1,16.84,55.86,40.88,86.82,91.88,118.32l27.73,17.13,9.53-31.17c21.68-70.8,18.1-101.86,14.95-129.27-.67-5.76-1.3-11.21-1.67-16.9-.26-3.92-.84-8.2-1.7-12.73,.77,.62,1.54,1.22,2.32,1.82,39.62,30.74,78.31,45.67,118.28,45.67h.02c30.35,0,60.95-8.98,90.97-26.69l53.11-31.34-59.89-14.75c-19.73-4.87-42.71-20.34-47.87-24.59-10.48-11.4-21.32-21.99-32.43-31.66,2.1-.66,4.16-1.38,6.19-2.16,24.72-9.51,45.57-33.47,60.23-55.03,105.26,37.63,195.46,116.06,203.28,292.4,15.01,338.25-241.23,528.29-500.86,528.29Z"/><path class="cls-2" d="M791.34,301.92c-27.77,16.4-53.84,23.21-78.18,23.21-77.39,0-137.43-68.87-180.35-117.94-.61,.29-1.25,.61-1.44,.7,.06,.15,35.5,74.8,37.77,109.29,2.28,34.49,12.41,56.65-12.23,137.15-44.71-27.62-65.46-52.64-81-104.18-15.55-51.54,4.44-127.95,4.16-129.6-.28-1.63-.56-2.06-.77-2.91-.71,1.28-14.63,49.21-68.58,89.4-25.77,19.19-55.64,25.41-83.5,25.41-48,0-90.01-18.48-94.62-20.72,21.5-5.26,44.95-20.51,50.78-24.88,15.15-11.36,57.98-71.06,76.61-80.86,9.1-4.8,38.06-21.18,76.76-21.18,5.28,0,10.73,.29,16.35,.98,.26-.95,.66-2.52,.71-2.7-36.65-8.98-110.93-17.51-128.65-27.83-6.41-3.74-21.16-11.01-34.6-26.51-14.45-16.66-27.38-42.83-26.79-84.35,4.54,13.35,24.8,38.83,48.86,42.45,35.93,5.4,65.4,3.03,91.26,10.13,11.46,3.15,23.68,9.02,35.38,17.25,14.74,10.37,28.64,24.48,39.1,41.59,.51-4.78,6.37-19.47,15.25-38.02,20.89-43.61,58.47-108.5,82.53-115.94,4.25-1.32,8.25-1.86,11.93-1.86,15.34,0,25.38,9.28,26.85,10.43-39.43,36.05-58.47,78.76-67.95,113.42-4.31,15.75-6.65,29.84-8.03,40.89,16.45-15.42,39.28-28.73,56.95-36.38,7.64-3.31,14.31-5.55,19.09-6.46,13.38-2.54,24.21-3.49,33.53-3.49,29.13,0,43.36,9.39,73.58,9.39,5.28,0,11.06-.3,17.49-.97,25.72-2.7,31.45-8.72,43.21-11.94-2.86,6.05-11.81,23.57-24.42,41.02-12.07,16.68-27.51,33.29-44.18,39.71-12.25,4.71-25.35,6.1-37.91,6.1-17.97,0-34.83-2.84-46.56-2.84-3.3,0-6.2,.22-8.6,.8,12.44,2.76,45.98,14.55,57.06,22.65,18.48,13.51,36.53,29.85,53.44,48.33,3.18,3.47,32.59,24.59,59.71,31.26Z"/></g></g></svg>