<?xml version="1.0" encoding="UTF-8"?><svg id="Calque_2" xmlns="http://www.w3.org/2000/svg" viewBox="0 0 987.38 1022.65"><defs><style>.cls-1{fill:#fff4db;}.cls-2{fill:#d22913;}.cls-3{fill:#507f24;}</style></defs><g id="Calque_2-2"><g><path class="cls-2" d="M485.89,1022.65c259.63,0,515.88-190.04,500.87-528.28-14.82-333.83-324.81-316.76-473.45-336.35C204.68,117.34-38.74,282.32,5.13,587.59c50.86,353.92,363.77,435.06,480.76,435.06Z"/><g><path class="cls-3" d="M857.24,330.15l-53.11,31.34c-30.02,17.71-60.62,26.69-90.97,26.69h-.02c-39.97,0-78.66-14.93-118.28-45.67-.78-.6-1.55-1.2-2.32-1.82,.86,4.53,1.44,8.81,1.7,12.73,.37,5.69,1,11.14,1.67,16.9,3.15,27.41,6.73,58.47-14.95,129.27l-9.53,31.17-27.73-17.13c-51-31.5-75.04-62.46-91.88-118.32-4.03-13.4-6.33-28.8-6.86-46.1-5.85,5.37-12.24,10.71-19.21,15.9-27.07,20.18-60.22,30.4-98.52,30.4-57.29,0-105.18-23.03-105.65-23.27l-62.55-30.52,67.59-16.52c16.14-3.96,36.18-16.46,41.66-20.57,4.19-3.17,16.83-18.13,26.04-29.05,20.9-24.74,35.46-41.47,48.09-50.35-13.2-3.11-23.07-6.35-29.91-10.34-.64-.38-1.38-.79-2.19-1.24-18.05-10.15-72.99-41.02-71.7-131.71l1.14-80.44,22.57-1.5,25.25,74.19c2.21,6.49,16.09,23.77,28.8,25.67,14.42,2.17,27.92,3.01,40.98,3.82,18.52,1.14,36,2.22,53.21,6.94,21.19,5.83,42.27,18.2,60.16,34.68,7.43-15.5,15.88-31.43,22.43-43,11.78-20.76,23.1-38.16,33.64-51.71,15.3-19.67,28.63-30.75,41.93-34.87,6.38-1.98,12.9-2.97,19.36-2.97,10.63,0,26.62,2.75,42.45,15.84l23.4,18.17-22.03,20.13c-23.95,21.91-41.9,48.63-53.7,79.8,12.25-5.87,23.61-9.99,32.12-11.61,13.96-2.64,26.45-3.93,38.2-3.93,17.09,0,29.98,2.75,41.34,5.18,10.54,2.26,19.65,4.21,32.24,4.21,4.72,0,9.58-.27,14.87-.84,14.02-1.47,19.63-3.79,26.12-6.49,3.67-1.52,7.84-3.25,13.06-4.68l52.74-14.46-23.34,49.45c-5.95,12.62-37.89,76.38-82.31,93.47-2.03,.78-4.09,1.5-6.19,2.16,11.11,9.67,21.95,20.26,32.43,31.66,5.16,4.25,28.14,19.72,47.87,24.59l59.89,14.75Z"/><path class="cls-1" d="M797.35,315.4c-19.73-4.87-42.71-20.34-47.87-24.59-10.48-11.4-21.32-21.99-32.43-31.66,2.1-.66,4.16-1.38,6.19-2.16,44.42-17.09,76.36-80.85,82.31-93.47l23.34-49.45-52.74,14.46c-5.22,1.43-9.39,3.16-13.06,4.68-6.49,2.7-12.1,5.02-26.12,6.49-5.29,.57-10.15,.84-14.87,.84-12.59,0-21.7-1.95-32.24-4.21-11.36-2.43-24.25-5.18-41.34-5.18-11.75,0-24.24,1.29-38.2,3.93-8.51,1.62-19.87,5.74-32.12,11.61,11.8-31.17,29.75-57.89,53.7-79.8l22.03-20.13-23.4-18.17c-15.83-13.09-31.82-15.84-42.45-15.84-6.46,0-12.98,.99-19.36,2.97-13.3,4.12-26.63,15.2-41.93,34.87-10.54,13.55-21.86,30.95-33.64,51.71-6.55,11.57-15,27.5-22.43,43-17.89-16.48-38.97-28.85-60.16-34.68-17.21-4.72-34.69-5.8-53.21-6.94-13.06-.81-26.56-1.65-40.98-3.82-12.71-1.9-26.59-19.18-28.8-25.67L262.32,0l-22.57,1.5-1.14,80.44c-1.29,90.69,53.65,121.56,71.7,131.71,.81,.45,1.55,.86,2.19,1.24,6.84,3.99,16.71,7.23,29.91,10.34-12.63,8.88-27.19,25.61-48.09,50.35-9.21,10.92-21.85,25.88-26.04,29.05-5.48,4.11-25.52,16.61-41.66,20.57l-67.59,16.52,62.55,30.52c.47,.24,48.36,23.27,105.65,23.27,38.3,0,71.45-10.22,98.52-30.4,6.97-5.19,13.36-10.53,19.21-15.9,.53,17.3,2.83,32.7,6.86,46.1,16.84,55.86,40.88,86.82,91.88,118.32l27.73,17.13,9.53-31.17c21.68-70.8,18.1-101.86,14.95-129.27-.67-5.76-1.3-11.21-1.67-16.9-.26-3.92-.84-8.2-1.7-12.73,.77,.62,1.54,1.22,2.32,1.82,39.62,30.74,78.31,45.67,118.28,45.67h.02c30.35,0,60.95-8.98,90.97-26.69l53.11-31.34-59.89-14.75Zm-84.19,47.63c-77.39,0-137.43-68.87-180.35-117.94-.61,.29-1.25,.61-1.44,.7,.06,.15,35.5,74.8,37.77,109.29,2.28,34.49,12.41,56.65-12.23,137.15-44.71-27.62-65.46-52.64-81-104.18-15.55-51.54,4.44-127.95,4.16-129.6-.28-1.63-.56-2.06-.77-2.91-.71,1.28-14.63,49.21-68.58,89.4-25.77,19.19-55.64,25.41-83.5,25.41-48,0-90.01-18.48-94.62-20.72,21.5-5.26,44.95-20.51,50.78-24.88,15.15-11.36,57.98-71.06,76.61-80.86,9.1-4.8,38.06-21.18,76.76-21.18,5.28,0,10.73,.29,16.35,.98,.26-.95,.66-2.52,.71-2.7-36.65-8.98-110.93-17.51-128.65-27.83-13.29-7.76-62.53-30.7-61.39-110.86,4.54,13.35,24.8,38.83,48.86,42.45,35.93,5.4,65.4,3.03,91.26,10.13,25.87,7.11,55.71,28.14,74.48,58.84,1.7-16.01,63.49-143.35,97.78-153.96,4.25-1.32,8.25-1.86,11.93-1.86,15.34,0,25.38,9.28,26.85,10.43-57.35,52.44-71.56,118.96-75.98,154.31,23.56-22.08,60.21-39.84,76.04-42.84,13.38-2.54,24.21-3.49,33.53-3.49,29.13,0,43.36,9.39,73.58,9.39,5.28,0,11.06-.3,17.49-.97,25.72-2.7,31.45-8.72,43.21-11.94-5.6,11.84-34.49,67.61-68.6,80.73-12.25,4.71-25.35,6.1-37.91,6.1-17.97,0-34.83-2.84-46.56-2.84-3.3,0-6.2,.22-8.6,.8,12.44,2.76,45.98,14.55,57.06,22.65,18.48,13.51,36.53,29.85,53.44,48.33,3.18,3.47,32.59,24.59,59.71,31.26-27.77,16.4-53.84,23.21-78.18,23.21Z"/></g></g></g></svg>