<?xml version="1.0" encoding="UTF-8"?><svg id="Calque_2" xmlns="http://www.w3.org/2000/svg" viewBox="0 0 987.38 1035.06"><defs><style>.cls-1{fill:#fff;}.cls-2{fill:#d22913;}.cls-3{fill:#507f24;}</style></defs><g id="Calque_2-2"><g><path class="cls-2" d="M485.89,1035.06c259.63,0,515.88-190.04,500.87-528.28-14.82-333.83-324.81-316.76-473.45-336.35C204.68,129.74-38.74,294.73,5.13,600c50.86,353.92,363.77,435.06,480.76,435.06Z"/><g><path class="cls-3" d="M857.24,342.56l-53.11,31.34c-30.02,17.71-60.62,26.69-90.97,26.69h-.02c-39.97,0-78.66-14.93-118.28-45.67-.77-.6-1.55-1.2-2.32-1.82,.86,4.53,1.45,8.81,1.71,12.73,.37,5.69,.99,11.14,1.67,16.9,3.15,27.41,6.72,58.47-14.95,129.28l-9.53,31.17-27.73-17.13c-51-31.5-75.04-62.46-91.87-118.32-4.04-13.4-6.33-28.8-6.86-46.1-5.85,5.37-12.25,10.71-19.22,15.9-27.07,20.17-60.21,30.4-98.51,30.4-57.29,0-105.19-23.03-105.65-23.27l-62.55-30.52,67.59-16.53c16.14-3.95,36.18-16.46,41.66-20.57,4.18-3.17,16.82-18.12,26.04-29.05,20.9-24.74,35.45-41.48,48.09-50.35-13.2-3.12-23.07-6.36-29.92-10.34-.64-.38-1.37-.79-2.18-1.24-18.05-10.15-72.99-41.02-71.7-131.71l1.14-80.45,22.57-1.5,25.25,74.19c2.21,6.49,16.09,23.77,28.8,25.67,14.42,2.17,27.92,3.01,40.97,3.82,18.52,1.14,36,2.22,53.21,6.95,21.19,5.83,42.27,18.2,60.17,34.68,7.42-15.5,15.88-31.43,22.43-43,11.78-20.76,23.09-38.16,33.64-51.71,15.3-19.67,28.63-30.75,41.93-34.87,6.38-1.98,12.9-2.97,19.36-2.97,10.63,0,26.62,2.75,42.45,15.84l23.4,18.17-22.03,20.12c-23.95,21.92-41.91,48.63-53.7,79.8,12.25-5.87,23.61-9.99,32.11-11.61,13.96-2.64,26.46-3.93,38.2-3.93,17.09,0,29.98,2.75,41.34,5.18,10.54,2.26,19.65,4.21,32.24,4.21,4.72,0,9.58-.27,14.87-.83,14.03-1.47,19.63-3.79,26.13-6.49,3.67-1.52,7.84-3.25,13.06-4.69l52.74-14.46-23.34,49.45c-5.95,12.61-37.89,76.38-82.31,93.47-2.02,.77-4.09,1.5-6.18,2.16,11.11,9.67,21.95,20.26,32.43,31.66,5.15,4.25,28.14,19.72,47.87,24.59l59.88,14.75Z"/><path class="cls-1" d="M803.38,303.38c-12.73-3.13-30.37-13.99-36.86-18.8-2.25-2.42-4.5-4.8-6.79-7.15,13.92-10.46,27.29-24.75,40.4-43.1,15.92-22.28,26.26-43.61,28.16-47.66l46.69-98.92-105.48,28.92c-6.74,1.85-12.12,4.09-16.06,5.72-5.42,2.26-8.7,3.62-19.09,4.71-4.41,.45-8.42,.69-12.25,.69-9.93,0-17.08-1.53-26.98-3.64-11.95-2.56-26.84-5.74-46.59-5.74-6.33,0-12.84,.32-19.58,.98,6.03-7.68,12.68-14.86,19.95-21.52l44.03-40.26-46.63-36.21C624.78,3.72,602.78,0,588.09,0h-.01c-4.49,0-9.01,.34-13.47,1.03-4.48,.69-8.93,1.71-13.33,3.07-18.47,5.71-35.73,19.52-54.35,43.45-11.29,14.5-23.28,32.92-35.66,54.75-3.13,5.51-6.23,11.18-9.28,16.89-14.43-9.29-29.68-16.27-44.77-20.42-19.73-5.41-39.35-6.63-58.34-7.79-12.22-.76-24.85-1.53-37.86-3.45-2.86-1.41-8.07-6.71-10.04-10.2l-22.69-66.66-25.99,1.73-22.57,1.5-25.18,1.68-1.12,78.41c-.63,43.96,10.61,81.32,33.39,111.03,18.11,23.65,39.22,36.21,49.53,42.05-6.47,7.23-13.46,15.45-21.27,24.69-7.34,8.69-18.32,21.68-22.49,25.56-5.39,3.83-21.27,13.22-31.97,15.84l-135.19,33.07,125.09,61.01c2.16,1.06,53.65,25.82,116.67,25.82,37.08,0,70.13-8.52,98.51-25.35,.63,2.47,1.29,4.9,2,7.26,9.72,32.22,21.85,56.9,38.21,77.66,15.84,20.11,35.75,37.01,64.53,54.79l55.47,34.26,19.08-62.34c10.27-33.56,15.9-60.66,17.74-85.25,.9-11.89,.81-22.06,.29-31.16,26.96,13.88,56.91,22.79,90.09,22.79,34.9,0,69.8-10.15,103.75-30.19l106.22-62.68-119.75-29.5Zm-270.57-45.88c-.61,.29-1.25,.61-1.45,.7,.06,.15,35.5,74.8,37.77,109.29,2.28,34.49,12.42,56.66-12.22,137.15-44.72-27.62-65.47-52.64-81-104.18-15.55-51.54,4.44-127.95,4.16-129.6-.28-1.63-.56-2.06-.77-2.91-.71,1.28-14.63,49.21-68.58,89.4-25.77,19.19-55.64,25.41-83.49,25.41-48,0-90.01-18.48-94.62-20.73,21.5-5.25,44.95-20.51,50.78-24.87,15.15-11.36,57.98-71.06,76.61-80.87,9.11-4.8,38.06-21.18,76.77-21.18,5.28,0,10.72,.29,16.35,.98,.26-.94,.66-2.52,.71-2.7-36.65-8.98-110.93-17.51-128.65-27.83-13.29-7.76-62.53-30.7-61.39-110.86,4.54,13.35,24.8,38.83,48.86,42.45,35.93,5.4,65.39,3.03,91.26,10.14,25.87,7.1,55.71,28.14,74.47,58.84,1.71-16.01,63.49-143.35,97.79-153.97,4.25-1.31,8.25-1.85,11.93-1.85,15.34,0,25.38,9.28,26.85,10.43-57.36,52.43-71.57,118.96-75.98,154.31,23.56-22.09,60.21-39.84,76.04-42.84,13.38-2.54,24.21-3.5,33.52-3.5,29.13,0,43.37,9.39,73.58,9.39,5.29,0,11.07-.29,17.5-.97,25.72-2.7,31.45-8.71,43.21-11.94-5.6,11.84-34.49,67.61-68.6,80.73-12.26,4.71-25.35,6.1-37.92,6.1-17.96,0-34.83-2.83-46.56-2.83-3.3,0-6.2,.22-8.6,.8,12.44,2.76,45.98,14.55,57.06,22.65,18.48,13.51,36.53,29.84,53.44,48.32,3.18,3.47,32.59,24.59,59.71,31.27-27.77,16.39-53.85,23.2-78.18,23.2-77.39,0-137.44-68.87-180.35-117.94Z"/></g></g></g></svg>